<svg width="230" height="56" viewBox="0 0 230 56" fill="none" xmlns="http://www.w3.org/2000/svg">
  <path d="M79.4175 50C77.3193 50 75.5735 49.5195 74.1801 48.5586C72.7867 47.5976 71.7376 46.1969 71.0327 44.3565C70.3442 42.4997 70 40.2602 70 37.638V18.8995C70 16.9287 70.1639 15.1534 70.4918 13.5736C70.8196 11.9937 71.3524 10.6419 72.0901 9.51805C72.8277 8.39423 73.8113 7.531 75.0407 6.92837C76.2702 6.32574 77.7865 6.02443 79.5897 6.02443C81.2289 6.02443 82.6223 6.29317 83.7698 6.83065C84.9337 7.35184 85.8762 8.1092 86.5975 9.10272C87.3352 10.0962 87.8679 11.3015 88.1958 12.7185C88.54 14.1192 88.7122 15.6991 88.7122 17.4581V23.3704H82.3436V17.8734C82.3436 15.7561 82.1633 14.2006 81.8027 13.2071C81.442 12.1973 80.7208 11.6924 79.6389 11.6924C78.4422 11.6924 77.639 12.238 77.2291 13.3293C76.8357 14.4042 76.639 15.9108 76.639 17.849V37.9312C76.639 39.4296 76.721 40.6593 76.8849 41.6202C77.0652 42.5649 77.3603 43.2652 77.7701 43.7213C78.1799 44.161 78.7536 44.3809 79.4913 44.3809C80.606 44.3809 81.3601 43.8597 81.7535 42.8173C82.1469 41.7749 82.3436 40.1218 82.3436 37.8579V31.7013H88.8105V37.7846C88.8105 40.5045 88.4909 42.7766 87.8515 44.6008C87.2122 46.4087 86.1959 47.7605 84.8025 48.6563C83.4255 49.5521 81.6306 50 79.4175 50Z" fill="black"/>
  <path d="M103.097 49.9511C101.326 49.9511 99.8427 49.6824 98.6461 49.1449C97.4494 48.5912 96.4986 47.8012 95.7938 46.7751C95.1053 45.7327 94.6053 44.4705 94.2938 42.9883C93.9988 41.4899 93.8512 39.7879 93.8512 37.8823V24.1766C93.8512 21.8801 94.1463 19.8523 94.7364 18.0933C95.343 16.318 96.3265 14.9336 97.6871 13.94C99.0477 12.9302 100.851 12.4253 103.097 12.4253C104.801 12.4253 106.236 12.7103 107.4 13.2804C108.58 13.8505 109.523 14.6648 110.227 15.7235C110.949 16.7659 111.473 18.0037 111.801 19.437C112.129 20.8703 112.293 22.4501 112.293 24.1766V37.8823C112.293 39.7553 112.145 41.4329 111.85 42.9151C111.572 44.3972 111.08 45.6676 110.375 46.7263C109.686 47.7686 108.752 48.5667 107.572 49.1205C106.392 49.6743 104.9 49.9511 103.097 49.9511ZM103.097 44.7229C103.834 44.7229 104.392 44.5031 104.769 44.0633C105.146 43.6073 105.4 42.9802 105.531 42.1821C105.662 41.384 105.728 40.4638 105.728 39.4214V23.0283C105.728 21.9208 105.654 20.968 105.506 20.1699C105.359 19.3718 105.097 18.7529 104.72 18.3132C104.343 17.8734 103.802 17.6535 103.097 17.6535C102.359 17.6535 101.793 17.8734 101.4 18.3132C101.023 18.7529 100.761 19.3718 100.613 20.1699C100.482 20.968 100.416 21.9208 100.416 23.0283V39.4214C100.416 40.4638 100.482 41.384 100.613 42.1821C100.761 42.9802 101.023 43.6073 101.4 44.0633C101.793 44.5031 102.359 44.7229 103.097 44.7229Z" fill="black"/>
  <path d="M118.243 49.5114V12.8651H124.809V16.945C125.235 15.528 125.973 14.4205 127.022 13.6224C128.087 12.8244 129.44 12.4253 131.079 12.4253C131.112 12.4253 131.128 12.7022 131.128 13.256C131.144 13.8097 131.153 14.4449 131.153 15.1616C131.153 15.8782 131.153 16.5134 131.153 17.0672C131.153 17.621 131.153 17.8978 131.153 17.8978C130.399 17.8978 129.579 17.9874 128.694 18.1666C127.825 18.3457 127.03 18.6226 126.309 18.9972C125.604 19.3555 125.104 19.836 124.809 20.4386V49.5114H118.243Z" fill="black"/>
  <path d="M143.988 49.9511C142.136 49.9511 140.611 49.658 139.414 49.0716C138.234 48.4853 137.308 47.6384 136.636 46.5308C135.98 45.4233 135.521 44.0959 135.259 42.5486C134.997 40.985 134.866 39.2423 134.866 37.3204V23.6635C134.866 21.9534 135.038 20.4061 135.382 19.0217C135.743 17.6372 136.292 16.4564 137.029 15.4792C137.783 14.5019 138.759 13.7527 139.955 13.2315C141.152 12.6941 142.595 12.4253 144.283 12.4253C146.004 12.4253 147.439 12.6859 148.586 13.2071C149.734 13.7283 150.635 14.4857 151.291 15.4792C151.963 16.4727 152.438 17.6698 152.717 19.0705C153.012 20.4549 153.16 22.0267 153.16 23.7857V31.628H141.431V38.8351C141.431 40.6104 141.57 42.0355 141.849 43.1105C142.127 44.1855 142.89 44.7229 144.136 44.7229C144.972 44.7229 145.562 44.4705 145.906 43.9656C146.267 43.4607 146.48 42.7685 146.545 41.889C146.627 40.9932 146.668 39.9752 146.668 38.8351V35.6102H153.11V37.5647C153.11 39.5354 152.988 41.2863 152.742 42.8173C152.512 44.3483 152.07 45.6432 151.414 46.7018C150.775 47.7605 149.857 48.5667 148.66 49.1205C147.463 49.6743 145.906 49.9511 143.988 49.9511ZM141.406 27.8412H146.668V23.1505C146.668 21.9289 146.611 20.9028 146.496 20.0722C146.381 19.2252 146.152 18.59 145.808 18.1666C145.463 17.7431 144.939 17.5314 144.234 17.5314C143.365 17.5314 142.726 17.7838 142.316 18.2887C141.923 18.7936 141.668 19.4858 141.554 20.3654C141.455 21.2286 141.406 22.214 141.406 23.3215V27.8412Z" fill="black"/>
  <path d="M176.593 50C174.495 50 172.749 49.5195 171.355 48.5586C169.962 47.5976 168.913 46.1969 168.208 44.3565C167.52 42.4997 167.175 40.2602 167.175 37.638V18.8995C167.175 16.9287 167.339 15.1534 167.667 13.5736C167.995 11.9937 168.528 10.6419 169.265 9.51805C170.003 8.39423 170.987 7.531 172.216 6.92837C173.446 6.32574 174.962 6.02443 176.765 6.02443C178.404 6.02443 179.798 6.29317 180.945 6.83065C182.109 7.35184 183.052 8.1092 183.773 9.10272C184.511 10.0962 185.043 11.3015 185.371 12.7185C185.715 14.1192 185.887 15.6991 185.887 17.4581V23.3704H179.519V17.8734C179.519 15.7561 179.339 14.2006 178.978 13.2071C178.617 12.1973 177.896 11.6924 176.814 11.6924C175.618 11.6924 174.814 12.238 174.404 13.3293C174.011 14.4042 173.814 15.9108 173.814 17.849V37.9312C173.814 39.4296 173.896 40.6593 174.06 41.6202C174.241 42.5649 174.536 43.2652 174.945 43.7213C175.355 44.161 175.929 44.3809 176.667 44.3809C177.781 44.3809 178.535 43.8597 178.929 42.8173C179.322 41.7749 179.519 40.1218 179.519 37.8579V31.7013H185.986V37.7846C185.986 40.5045 185.666 42.7766 185.027 44.6008C184.388 46.4087 183.371 47.7605 181.978 48.6563C180.601 49.5521 178.806 50 176.593 50Z" fill="black"/>
  <path d="M199.461 50C197.657 50 196.149 49.7231 194.936 49.1694C193.74 48.5993 192.789 47.7768 192.084 46.7018C191.395 45.6106 190.904 44.2913 190.609 42.744C190.314 41.1805 190.166 39.4051 190.166 37.4181V33.5825H196.412V37.9067C196.412 40.2195 196.608 41.8808 197.002 42.8906C197.395 43.9004 198.174 44.4053 199.338 44.4053C200.124 44.4053 200.715 44.2262 201.108 43.8679C201.518 43.4932 201.788 42.9069 201.919 42.1088C202.067 41.2945 202.141 40.2358 202.141 38.9328C202.141 37.3204 201.797 35.8464 201.108 34.5108C200.436 33.1753 199.411 31.7909 198.034 30.3576L194.838 27.0838C193.953 26.1718 193.149 25.2027 192.428 24.1766C191.723 23.1505 191.158 22.0104 190.732 20.7562C190.322 19.4858 190.117 18.0689 190.117 16.5053C190.117 14.2413 190.395 12.3276 190.953 10.764C191.51 9.20044 192.453 8.01962 193.781 7.22154C195.108 6.40718 196.928 6 199.239 6C200.977 6 202.403 6.26874 203.518 6.80622C204.649 7.32741 205.526 8.10106 206.149 9.12715C206.788 10.137 207.239 11.3748 207.501 12.8406C207.763 14.2902 207.895 15.9515 207.895 17.8245V20.4875H201.821V17.4092C201.821 16.1062 201.747 15.0231 201.6 14.1599C201.469 13.2967 201.215 12.6533 200.838 12.2299C200.461 11.7901 199.911 11.5702 199.19 11.5702C198.502 11.5702 197.944 11.725 197.518 12.0344C197.092 12.3276 196.78 12.7918 196.584 13.427C196.403 14.0459 196.313 14.8521 196.313 15.8456C196.313 16.7414 196.428 17.5151 196.657 18.1666C196.887 18.8181 197.239 19.4451 197.715 20.0478C198.19 20.6504 198.78 21.3263 199.485 22.0755L203.051 25.9112C204.755 27.7353 206.083 29.6328 207.034 31.6036C207.985 33.5743 208.46 35.7731 208.46 38.1999C208.46 40.7733 208.181 42.9395 207.624 44.6985C207.067 46.4412 206.132 47.7605 204.821 48.6563C203.51 49.5521 201.723 50 199.461 50Z" fill="black"/>
  <path d="M221 50C219.197 50 217.689 49.7231 216.476 49.1694C215.279 48.5993 214.329 47.7768 213.624 46.7018C212.935 45.6106 212.444 44.2913 212.148 42.744C211.853 41.1805 211.706 39.4051 211.706 37.4181V33.5825H217.951V37.9067C217.951 40.2195 218.148 41.8808 218.542 42.8906C218.935 43.9004 219.714 44.4053 220.878 44.4053C221.664 44.4053 222.254 44.2262 222.648 43.8679C223.058 43.4932 223.328 42.9069 223.459 42.1088C223.607 41.2945 223.681 40.2358 223.681 38.9328C223.681 37.3204 223.336 35.8464 222.648 34.5108C221.976 33.1753 220.951 31.7909 219.574 30.3576L216.378 27.0838C215.493 26.1718 214.689 25.2027 213.968 24.1766C213.263 23.1505 212.698 22.0104 212.271 20.7562C211.862 19.4858 211.657 18.0689 211.657 16.5053C211.657 14.2413 211.935 12.3276 212.493 10.764C213.05 9.20044 213.993 8.01962 215.32 7.22154C216.648 6.40718 218.468 6 220.779 6C222.517 6 223.943 6.26874 225.058 6.80622C226.189 7.32741 227.066 8.10106 227.689 9.12715C228.328 10.137 228.779 11.3748 229.041 12.8406C229.303 14.2902 229.434 15.9515 229.434 17.8245V20.4875H223.361V17.4092C223.361 16.1062 223.287 15.0231 223.14 14.1599C223.009 13.2967 222.754 12.6533 222.377 12.2299C222 11.7901 221.451 11.5702 220.73 11.5702C220.041 11.5702 219.484 11.725 219.058 12.0344C218.632 12.3276 218.32 12.7918 218.124 13.427C217.943 14.0459 217.853 14.8521 217.853 15.8456C217.853 16.7414 217.968 17.5151 218.197 18.1666C218.427 18.8181 218.779 19.4451 219.255 20.0478C219.73 20.6504 220.32 21.3263 221.025 22.0755L224.59 25.9112C226.295 27.7353 227.623 29.6328 228.574 31.6036C229.525 33.5743 230 35.7731 230 38.1999C230 40.7733 229.721 42.9395 229.164 44.6985C228.607 46.4412 227.672 47.7605 226.361 48.6563C225.049 49.5521 223.263 50 221 50Z" fill="black"/>
  <path fill-rule="evenodd" clip-rule="evenodd" d="M42 28L28 14L28 14.0001L14 28L28 42L42 28L56 42L42 56L42 56H14L14 56L0 42V27.9859V14.0001L14 6.54873e-05V6.50702e-05L14 5.99699e-05L16.1848 5.99929e-05L42 0L42 6.02642e-05L56 14L42 28Z" fill="#2563EB"/>
  <path d="M14 0L28 14L14 28V0Z" fill="url(#paint0_linear_10_75)"/>
  <path d="M0 42L14 28L28 42L0 42Z" fill="url(#paint1_linear_10_75)"/>
  <path d="M42 56L28 42L42 28L42 56Z" fill="url(#paint2_linear_10_75)"/>
  <defs>
    <linearGradient id="paint0_linear_10_75" x1="27.9747" y1="-0.152126" x2="14.0254" y2="-0.152126" gradientUnits="userSpaceOnUse">
      <stop stop-color="#1E40AF"/>
      <stop offset="1" stop-color="#1E40AF" stop-opacity="0"/>
    </linearGradient>
    <linearGradient id="paint1_linear_10_75" x1="-0.152126" y1="28.0253" x2="-0.152126" y2="41.9746" gradientUnits="userSpaceOnUse">
      <stop stop-color="#1E40AF"/>
      <stop offset="1" stop-color="#1E40AF" stop-opacity="0"/>
    </linearGradient>
    <linearGradient id="paint2_linear_10_75" x1="28.0253" y1="56.1521" x2="41.9746" y2="56.1521" gradientUnits="userSpaceOnUse">
      <stop stop-color="#1E40AF"/>
      <stop offset="1" stop-color="#1E40AF" stop-opacity="0"/>
    </linearGradient>
  </defs>
</svg>
