<svg width="512" height="512" viewBox="0 0 512 512" fill="none" xmlns="http://www.w3.org/2000/svg">
<path fill-rule="evenodd" clip-rule="evenodd" d="M128 0.000567436L0 128.001L4.2923e-06 255.871L7.62939e-06 384L7.6687e-05 384L7.66869e-05 384L128 512H384L512 384L384 256L256 384L128 256L256 128L256 128L384 256L512 128L384 0.000513279L384 -2.28882e-05L154.335 0.000503287L128 0.000502141L128 0.000563623V0.000567436Z" fill="#2563EB"/>
<path d="M128 0L256 128L128 256V0Z" fill="url(#paint0_linear_10_61)"/>
<path d="M0 384L128 256L256 384L0 384Z" fill="url(#paint1_linear_10_61)"/>
<path d="M384 512L256 384L384 256L384 512Z" fill="url(#paint2_linear_10_61)"/>
<defs>
<linearGradient id="paint0_linear_10_61" x1="255.768" y1="-1.39087" x2="128.232" y2="-1.39086" gradientUnits="userSpaceOnUse">
<stop stop-color="#1E40AF"/>
<stop offset="1" stop-color="#1E40AF" stop-opacity="0"/>
</linearGradient>
<linearGradient id="paint1_linear_10_61" x1="-1.39087" y1="256.232" x2="-1.39086" y2="383.768" gradientUnits="userSpaceOnUse">
<stop stop-color="#1E40AF"/>
<stop offset="1" stop-color="#1E40AF" stop-opacity="0"/>
</linearGradient>
<linearGradient id="paint2_linear_10_61" x1="256.232" y1="513.391" x2="383.768" y2="513.391" gradientUnits="userSpaceOnUse">
<stop stop-color="#1E40AF"/>
<stop offset="1" stop-color="#1E40AF" stop-opacity="0"/>
</linearGradient>
</defs>
</svg>
